<svg xmlns="http://www.w3.org/2000/svg" width="600" height="600" xml:space="preserve" style="background:#363"><style>line{stroke:#cfc;stroke-width:20px;transform-origin:50%}circle{stroke-miterlimit:4;fill:none}</style><path d="M300 70v455"/><path style="rotate:22.5deg" d="M300 70v455"/><path style="rotate:45deg" d="M300 70v455"/><path style="rotate:67.5deg" d="M300 70v455"/><path style="rotate:90deg" d="M300 70v455"/><path style="rotate:112.5deg" d="M300 70v455"/><path style="rotate:135deg" d="M300 70v455"/><path style="rotate:157.5deg" d="M300 70v455"/><circle style="stroke:#fff;stroke-width:35px" cx="300" cy="300" r="223"/><circle style="stroke:#cfc;stroke-width:35px" cx="300" cy="300" r="225"/><circle style="stroke:#bfb;stroke-width:25px" cx="300" cy="300" r="229"/><circle style="stroke:#afa;stroke-width:15px" cx="300" cy="300" r="233"/><circle style="stroke:#9f9;stroke-width:5px" cx="300" cy="300" r="237"/><circle style="stroke:#484;stroke-width:1px" cx="300" cy="300" r="240"/><circle style="stroke:#393;stroke-width:1px" cx="300" cy="300" r="233"/><circle style="stroke:#2a2;stroke-width:1px" cx="300" cy="300" r="226"/><circle style="stroke:#1b1;stroke-width:1px" cx="300" cy="300" r="219"/><circle style="stroke:#aca;stroke-width:1px" cx="300" cy="300" r="212"/><circle style="stroke:#363;stroke-width:4px" cx="300" cy="300" r="204"/><circle style="stroke:#fff;stroke-width:29px" cx="300" cy="300" r="55"/><circle style="stroke:#cfc;stroke-width:28px" cx="300" cy="300" r="55"/><circle style="stroke:#bfb;stroke-width:22px" cx="300" cy="300" r="45"/><circle style="stroke:#afa;stroke-width:18px" cx="300" cy="300" r="45"/><circle style="stroke:#9f9;stroke-width:12px" cx="300" cy="300" r="25"/><circle style="stroke:#363;stroke-width:3px" cx="300" cy="300" r="69"/><circle style="stroke:#363;stroke-width:3px" cx="300" cy="300" r="55"/><circle style="stroke:#2a2;stroke-width:1px" cx="300" cy="300" r="50"/><circle style="stroke:#1b1;stroke-width:1px" cx="300" cy="300" r="45"/><circle style="stroke:#aca;stroke-width:1px" cx="300" cy="300" r="40"/><circle style="stroke:#bdb;stroke-width:1px" cx="300" cy="300" r="35"/><circle style="fill:#363;stroke-width:0" cx="300" cy="300" r="28"/></svg>